<svg width="12" height="9" viewBox="0 0 12 9" fill="none" xmlns="http://www.w3.org/2000/svg">
<path d="M10.983 0.236583C10.9086 0.161618 10.8201 0.102116 10.7227 0.0615109C10.6252 0.0209055 10.5207 0 10.4151 0C10.3095 0 10.205 0.0209055 10.1075 0.0615109C10.01 0.102116 9.92158 0.161618 9.84722 0.236583L3.88862 6.20318L1.38521 3.69177C1.30801 3.6172 1.21688 3.55856 1.11702 3.51921C1.01716 3.47985 0.910526 3.46055 0.803207 3.46241C0.695888 3.46427 0.589985 3.48724 0.491545 3.53003C0.393106 3.57281 0.304057 3.63457 0.229484 3.71177C0.154911 3.78897 0.0962733 3.8801 0.0569193 3.97996C0.0175654 4.07982 -0.00173443 4.18645 0.000122306 4.29377C0.00197904 4.40109 0.0249559 4.50699 0.0677406 4.60543C0.110525 4.70387 0.17228 4.79292 0.249479 4.86749L3.32076 7.93877C3.39511 8.01374 3.48357 8.07324 3.58104 8.11384C3.6785 8.15445 3.78304 8.17535 3.88862 8.17535C3.99421 8.17535 4.09875 8.15445 4.19621 8.11384C4.29368 8.07324 4.38214 8.01374 4.45649 7.93877L10.983 1.41231C11.0641 1.33741 11.1289 1.24651 11.1732 1.14533C11.2176 1.04416 11.2404 0.9349 11.2404 0.824445C11.2404 0.713989 11.2176 0.604731 11.1732 0.503555C11.1289 0.402379 11.0641 0.311479 10.983 0.236583Z" fill="white"/>
</svg>
